<svg width="48" height="48" viewBox="0 0 48 48" fill="none" xmlns="http://www.w3.org/2000/svg">
<rect width="48" height="48" fill="white"/>
<path d="M30.5 40.5C30.5 41.6457 29.4516 43.1445 26.6771 44.4451C24.0221 45.6896 20.2488 46.5 16 46.5C11.7512 46.5 7.97793 45.6896 5.32294 44.4451C2.54839 43.1445 1.5 41.6457 1.5 40.5C1.5 39.3543 2.54839 37.8555 5.32294 36.5549C7.97793 35.3104 11.7512 34.5 16 34.5C20.2488 34.5 24.0221 35.3104 26.6771 36.5549C29.4516 37.8555 30.5 39.3543 30.5 40.5Z" stroke="#152C5B" stroke-width="3"/>
<path d="M28.5 11.8481C28.5 14.8562 27.003 21.9459 24.5028 28.3309C23.2593 31.5064 21.8099 34.3953 20.2517 36.4622C18.6406 38.5993 17.1892 39.5 16 39.5C14.8108 39.5 13.3594 38.5993 11.7483 36.4622C10.1901 34.3953 8.74066 31.5064 7.49724 28.3309C4.99702 21.9459 3.5 14.8562 3.5 11.8481C3.5 6.35791 8.85203 1.5 16 1.5C23.148 1.5 28.5 6.35791 28.5 11.8481Z" fill="white" stroke="#152C5B" stroke-width="3"/>
<path d="M20.5 13C20.5 15.4853 18.4853 17.5 16 17.5C13.5147 17.5 11.5 15.4853 11.5 13C11.5 10.5147 13.5147 8.5 16 8.5C18.4853 8.5 20.5 10.5147 20.5 13Z" stroke="#FF498B" stroke-width="3"/>
</svg>
