<svg width="48" height="48" viewBox="0 0 48 48" fill="none" xmlns="http://www.w3.org/2000/svg">
<rect width="48" height="48" fill="white"/>
<mask id="path-2-inside-1" fill="white">
<path fill-rule="evenodd" clip-rule="evenodd" d="M18.3541 6C17.5363 6 16.8008 6.4979 16.4971 7.25722L15 11H8C3.58172 11 0 14.5817 0 19V33C0 37.4183 3.58172 41 8 41H40C44.4183 41 48 37.4183 48 33V19C48 14.5817 44.4183 11 40 11H33.25L31.9688 7.3393C31.688 6.53713 30.9309 6 30.081 6H18.3541Z"/>
</mask>
<path d="M16.4971 7.25722L19.2825 8.37139V8.37139L16.4971 7.25722ZM15 11V14H17.0311L17.7854 12.1142L15 11ZM33.25 11L30.4184 11.9911L31.1216 14H33.25V11ZM31.9688 7.3393L29.1372 8.33035V8.33035L31.9688 7.3393ZM19.2825 8.37139C19.1307 8.75105 18.763 9 18.3541 9V3C16.3095 3 14.471 4.24475 13.7117 6.14305L19.2825 8.37139ZM17.7854 12.1142L19.2825 8.37139L13.7117 6.14305L12.2146 9.88583L17.7854 12.1142ZM8 14H15V8H8V14ZM3 19C3 16.2386 5.23858 14 8 14V8C1.92487 8 -3 12.9249 -3 19H3ZM3 33V19H-3V33H3ZM8 38C5.23858 38 3 35.7614 3 33H-3C-3 39.0751 1.92487 44 8 44V38ZM40 38H8V44H40V38ZM45 33C45 35.7614 42.7614 38 40 38V44C46.0751 44 51 39.0751 51 33H45ZM45 19V33H51V19H45ZM40 14C42.7614 14 45 16.2386 45 19H51C51 12.9249 46.0751 8 40 8V14ZM33.25 14H40V8H33.25V14ZM29.1372 8.33035L30.4184 11.9911L36.0816 10.0089L34.8003 6.34825L29.1372 8.33035ZM30.081 9C29.6561 9 29.2776 8.73144 29.1372 8.33035L34.8003 6.34825C34.0984 4.34281 32.2058 3 30.081 3V9ZM18.3541 9H30.081V3H18.3541V9Z" fill="#152C5B" mask="url(#path-2-inside-1)"/>
<path d="M30.5 26C30.5 29.5899 27.5899 32.5 24 32.5C20.4101 32.5 17.5 29.5899 17.5 26C17.5 22.4101 20.4101 19.5 24 19.5C27.5899 19.5 30.5 22.4101 30.5 26Z" stroke="#FF498B" stroke-width="3"/>
<path d="M34 18H40" stroke="#152C5B" stroke-width="3" stroke-linecap="round"/>
</svg>
